<?xml version="1.0" standalone="no"?><?xml-stylesheet type="text/css" href="https://wps.processon.com/themes/default/wps/mind/icons/icons.css" ?><!DOCTYPE svg PUBLIC "-//W3C//DTD SVG 1.1//EN" "http://www.w3.org/Graphics/SVG/1.1/DTD/svg11.dtd"><svg xmlns="http://www.w3.org/2000/svg" xlink="http://www.w3.org/1999/xlink" id="mind-svg-con" version="1.1" width="908.34375px" height="754px" style="position: absolute; left: 0px; top: 0px; width: 908.34375px; height: 754px; background-color: rgb(255, 255, 255); z-index: 999;"><defs></defs><g id="svgbackgroundid"><defs></defs><rect x="0" y="0" width="908.34375" height="754" fill="#ffffff"></rect></g><g transform="translate(-9542.65625, -9558)" id="sdjakdjak10"><defs></defs><g class="svg-topic-con" transform="translate(0.5,0.5)"><path part="right" sub="true" id="line_5978d571cddb" d="M 10000 9935.5 C 10000 9935.5 10010 9654 10148 9654" stroke="rgb(170,170,170)" fill="none" stroke-width="1"></path><path part="right" sub="true" id="line_9aeb39cc6909" d="M 10000 9935.5 C 10000 9935.5 10010 9794.5 10148 9794.5" stroke="rgb(170,170,170)" fill="none" stroke-width="1"></path><path part="right" sub="true" id="line_bfcaa19b1abf" d="M 10000 9935.5 C 10000 9935.5 10010 9935 10148 9935" stroke="rgb(170,170,170)" fill="none" stroke-width="1"></path><path part="right" sub="true" id="line_8ef33ef1864c" d="M 10000 9935.5 C 10000 9935.5 10010 10093 10148 10093" stroke="rgb(170,170,170)" fill="none" stroke-width="1"></path><path part="right" sub="true" id="line_5b558bcd799f" d="M 10000 9935.5 C 10000 9935.5 10010 10233.5 10148 10233.5" stroke="rgb(170,170,170)" fill="none" stroke-width="1"></path><path part="left" sub="true" id="line_406ad1c88715" d="M 10000 9935.5 C 10000 9935.5 9990 9681 9852 9681" stroke="rgb(170,170,170)" fill="none" stroke-width="1"></path><path part="left" sub="true" id="line_f9610654217c" d="M 10000 9935.5 C 10000 9935.5 9990 9821.5 9852 9821.5" stroke="rgb(170,170,170)" fill="none" stroke-width="1"></path><path part="left" sub="true" id="line_647b24c9f94c" d="M 10000 9935.5 C 10000 9935.5 9990 9997 9852 9997" stroke="rgb(170,170,170)" fill="none" stroke-width="1"></path><path part="left" sub="true" id="line_76bb576230db" d="M 10000 9935.5 C 10000 9935.5 9990 10155 9852 10155" stroke="rgb(170,170,170)" fill="none" stroke-width="1"></path></g><g class="svg-connection-con" transform="translate(0.5,0.5)"></g><g class="svg-freesums-con" transform="translate(0.5,0.5)"></g><g class="svg-freebos-con" transform="translate(0.5,0.5)"></g></g><g id="5b558bcd799f"><rect x="605.34375" y="650.640625" rx="5px" ry="5px" width="96" height="50" style="fill: #ffffff; stroke:rgb(187,187,187);stroke-width:1px;"></rect><g><text text-anchor="start" align="top" anchor="start" font-size="17px" font-weight="normal" fill="rgb(68, 68, 68)" style="font-size:17px;font-family:微软雅黑;color:rgb(68,68,68);font-style:normal;text-align:left;font-weight:normal;"><tspan x="616.34375" y="683.0406250000001"><tspan>algorithm</tspan></tspan></text></g></g><g id="825ba1476f7d"><rect x="729.4375" y="627" rx="1px" ry="1px" width="48" height="27" style="fill: transparent; stroke:none;"></rect><g><text text-anchor="start" align="top" anchor="start" font-size="13px" font-weight="normal" fill="rgb(68, 68, 68)" style="font-size:13px;font-family:微软雅黑;color:rgb(68,68,68);font-style:normal;text-align:left;font-weight:normal;"><tspan x="738.4375" y="645.7406249999999"><tspan>slam</tspan></tspan></text></g></g><g id="15eaabc9d2b1"><rect x="729.4375" y="662" rx="1px" ry="1px" width="48" height="27" style="fill: transparent; stroke:none;"></rect><g><text text-anchor="start" align="top" anchor="start" font-size="13px" font-weight="normal" fill="rgb(68, 68, 68)" style="font-size:13px;font-family:微软雅黑;color:rgb(68,68,68);font-style:normal;text-align:left;font-weight:normal;"><tspan x="738.4375" y="680.7406249999999"><tspan>ai</tspan></tspan></text></g></g><g id="31417e1dfdf2"><rect x="729.4375" y="697" rx="1px" ry="1px" width="61" height="27" style="fill: transparent; stroke:none;"></rect><g><text text-anchor="start" align="top" anchor="start" font-size="13px" font-weight="normal" fill="rgb(68, 68, 68)" style="font-size:13px;font-family:微软雅黑;color:rgb(68,68,68);font-style:normal;text-align:left;font-weight:normal;"><tspan x="738.4375" y="715.7406249999999"><tspan>tracker</tspan></tspan></text></g></g><g id="8ef33ef1864c"><rect x="605.34375" y="510.640625" rx="5px" ry="5px" width="106" height="50" style="fill: #ffffff; stroke:rgb(187,187,187);stroke-width:1px;"></rect><g><text text-anchor="start" align="top" anchor="start" font-size="17px" font-weight="normal" fill="rgb(68, 68, 68)" style="font-size:17px;font-family:微软雅黑;color:rgb(68,68,68);font-style:normal;text-align:left;font-weight:normal;"><tspan x="616.34375" y="543.0406250000001"><tspan>interaction</tspan></tspan></text></g></g><g id="a732aed53006"><rect x="739.53125" y="469" rx="1px" ry="1px" width="138" height="27" style="fill: transparent; stroke:none;"></rect><g><text text-anchor="start" align="top" anchor="start" font-size="13px" font-weight="normal" fill="rgb(68, 68, 68)" style="font-size:13px;font-family:微软雅黑;color:rgb(68,68,68);font-style:normal;text-align:left;font-weight:normal;"><tspan x="748.53125" y="487.740625"><tspan>visual_programming</tspan></tspan></text></g></g><g id="d33772bdc472"><rect x="739.53125" y="504" rx="1px" ry="1px" width="61" height="27" style="fill: transparent; stroke:none;"></rect><g><text text-anchor="start" align="top" anchor="start" font-size="13px" font-weight="normal" fill="rgb(68, 68, 68)" style="font-size:13px;font-family:微软雅黑;color:rgb(68,68,68);font-style:normal;text-align:left;font-weight:normal;"><tspan x="748.53125" y="522.740625"><tspan>remote</tspan></tspan></text></g></g><g id="97d57b8183b7"><rect x="739.53125" y="539" rx="1px" ry="1px" width="51" height="27" style="fill: transparent; stroke:none;"></rect><g><text text-anchor="start" align="top" anchor="start" font-size="13px" font-weight="normal" fill="rgb(68, 68, 68)" style="font-size:13px;font-family:微软雅黑;color:rgb(68,68,68);font-style:normal;text-align:left;font-weight:normal;"><tspan x="748.53125" y="557.7406249999999"><tspan>audio</tspan></tspan></text></g></g><g id="731f8801fd87"><rect x="739.53125" y="574" rx="1px" ry="1px" width="79" height="27" style="fill: transparent; stroke:none;"></rect><g><text text-anchor="start" align="top" anchor="start" font-size="13px" font-weight="normal" fill="rgb(68, 68, 68)" style="font-size:13px;font-family:微软雅黑;color:rgb(68,68,68);font-style:normal;text-align:left;font-weight:normal;"><tspan x="748.53125" y="592.7406249999999"><tspan>connector</tspan></tspan></text></g></g><g id="bfcaa19b1abf"><rect x="605.34375" y="352.640625" rx="5px" ry="5px" width="74" height="50" style="fill: #ffffff; stroke:rgb(187,187,187);stroke-width:1px;"></rect><g><text text-anchor="start" align="top" anchor="start" font-size="17px" font-weight="normal" fill="rgb(68, 68, 68)" style="font-size:17px;font-family:微软雅黑;color:rgb(68,68,68);font-style:normal;text-align:left;font-weight:normal;"><tspan x="616.34375" y="385.040625"><tspan>sensor</tspan></tspan></text></g></g><g id="a4dd184607d9"><rect x="707.625" y="311" rx="1px" ry="1px" width="48" height="27" style="fill: transparent; stroke:none;"></rect><g><text text-anchor="start" align="top" anchor="start" font-size="13px" font-weight="normal" fill="rgb(68, 68, 68)" style="font-size:13px;font-family:微软雅黑;color:rgb(68,68,68);font-style:normal;text-align:left;font-weight:normal;"><tspan x="716.625" y="329.740625"><tspan>tof</tspan></tspan></text></g></g><g id="e8e95a9e2b77"><rect x="707.625" y="346" rx="1px" ry="1px" width="63" height="27" style="fill: transparent; stroke:none;"></rect><g><text text-anchor="start" align="top" anchor="start" font-size="13px" font-weight="normal" fill="rgb(68, 68, 68)" style="font-size:13px;font-family:微软雅黑;color:rgb(68,68,68);font-style:normal;text-align:left;font-weight:normal;"><tspan x="716.625" y="364.740625"><tspan>camera</tspan></tspan></text></g></g><g id="b98e5f8dcf49"><rect x="707.625" y="381" rx="1px" ry="1px" width="77" height="27" style="fill: transparent; stroke:none;"></rect><g><text text-anchor="start" align="top" anchor="start" font-size="13px" font-weight="normal" fill="rgb(68, 68, 68)" style="font-size:13px;font-family:微软雅黑;color:rgb(68,68,68);font-style:normal;text-align:left;font-weight:normal;"><tspan x="716.625" y="399.740625"><tspan>ultrasonic</tspan></tspan></text></g></g><g id="0ef64af28170"><rect x="707.625" y="416" rx="1px" ry="1px" width="48" height="27" style="fill: transparent; stroke:none;"></rect><g><text text-anchor="start" align="top" anchor="start" font-size="13px" font-weight="normal" fill="rgb(68, 68, 68)" style="font-size:13px;font-family:微软雅黑;color:rgb(68,68,68);font-style:normal;text-align:left;font-weight:normal;"><tspan x="716.625" y="434.740625"><tspan>gps</tspan></tspan></text></g></g><g id="9aeb39cc6909"><rect x="605.34375" y="211.640625" rx="5px" ry="5px" width="76" height="50" style="fill: #ffffff; stroke:rgb(187,187,187);stroke-width:1px;"></rect><g><text text-anchor="start" align="top" anchor="start" font-size="17px" font-weight="normal" fill="rgb(68, 68, 68)" style="font-size:17px;font-family:微软雅黑;color:rgb(68,68,68);font-style:normal;text-align:left;font-weight:normal;"><tspan x="616.34375" y="244.04062499999998"><tspan>motion</tspan></tspan></text></g></g><g id="3465036dc5ff"><rect x="709.703125" y="188" rx="1px" ry="1px" width="119" height="27" style="fill: transparent; stroke:none;"></rect><g><text text-anchor="start" align="top" anchor="start" font-size="13px" font-weight="normal" fill="rgb(68, 68, 68)" style="font-size:13px;font-family:微软雅黑;color:rgb(68,68,68);font-style:normal;text-align:left;font-weight:normal;"><tspan x="718.703125" y="206.74062500000002"><tspan>motion_manager</tspan></tspan></text></g></g><g id="92dbd7984e97"><rect x="709.703125" y="223" rx="1px" ry="1px" width="55" height="27" style="fill: transparent; stroke:none;"></rect><g><text text-anchor="start" align="top" anchor="start" font-size="13px" font-weight="normal" fill="rgb(68, 68, 68)" style="font-size:13px;font-family:微软雅黑;color:rgb(68,68,68);font-style:normal;text-align:left;font-weight:normal;"><tspan x="718.703125" y="241.74062500000002"><tspan>action</tspan></tspan></text></g></g><g id="3a036dfa5dfe"><rect x="709.703125" y="258" rx="1px" ry="1px" width="80" height="27" style="fill: transparent; stroke:none;"></rect><g><text text-anchor="start" align="top" anchor="start" font-size="13px" font-weight="normal" fill="rgb(68, 68, 68)" style="font-size:13px;font-family:微软雅黑;color:rgb(68,68,68);font-style:normal;text-align:left;font-weight:normal;"><tspan x="718.703125" y="276.740625"><tspan>navigation</tspan></tspan></text></g></g><g id="5978d571cddb"><rect x="605.34375" y="71.640625" rx="5px" ry="5px" width="73" height="50" style="fill: #ffffff; stroke:rgb(187,187,187);stroke-width:1px;"></rect><g><text text-anchor="start" align="top" anchor="start" font-size="17px" font-weight="normal" fill="rgb(68, 68, 68)" style="font-size:17px;font-family:微软雅黑;color:rgb(68,68,68);font-style:normal;text-align:left;font-weight:normal;"><tspan x="616.34375" y="104.040625"><tspan>device</tspan></tspan></text></g></g><g id="a42e6982c969"><rect x="706.03125" y="30" rx="1px" ry="1px" width="116" height="27" style="fill: transparent; stroke:none;"></rect><g><text text-anchor="start" align="top" anchor="start" font-size="13px" font-weight="normal" fill="rgb(68, 68, 68)" style="font-size:13px;font-family:微软雅黑;color:rgb(68,68,68);font-style:normal;text-align:left;font-weight:normal;"><tspan x="715.03125" y="48.740625"><tspan>device_manager</tspan></tspan></text></g></g><g id="b6f6a3d87b95"><rect x="706.03125" y="65" rx="1px" ry="1px" width="48" height="27" style="fill: transparent; stroke:none;"></rect><g><text text-anchor="start" align="top" anchor="start" font-size="13px" font-weight="normal" fill="rgb(68, 68, 68)" style="font-size:13px;font-family:微软雅黑;color:rgb(68,68,68);font-style:normal;text-align:left;font-weight:normal;"><tspan x="715.03125" y="83.740625"><tspan>bms</tspan></tspan></text></g></g><g id="256714349904"><rect x="706.03125" y="100" rx="1px" ry="1px" width="48" height="27" style="fill: transparent; stroke:none;"></rect><g><text text-anchor="start" align="top" anchor="start" font-size="13px" font-weight="normal" fill="rgb(68, 68, 68)" style="font-size:13px;font-family:微软雅黑;color:rgb(68,68,68);font-style:normal;text-align:left;font-weight:normal;"><tspan x="715.03125" y="118.740625"><tspan>led</tspan></tspan></text></g></g><g id="117855771220"><rect x="706.03125" y="135" rx="1px" ry="1px" width="52" height="27" style="fill: transparent; stroke:none;"></rect><g><text text-anchor="start" align="top" anchor="start" font-size="13px" font-weight="normal" fill="rgb(68, 68, 68)" style="font-size:13px;font-family:微软雅黑;color:rgb(68,68,68);font-style:normal;text-align:left;font-weight:normal;"><tspan x="715.03125" y="153.74062500000002"><tspan>touch</tspan></tspan></text></g></g><g id="1943c5a9ac97"><rect x="44.859375" y="531" rx="1px" ry="1px" width="111" height="27" style="fill: transparent; stroke:none;"></rect><g><text text-anchor="start" align="top" anchor="start" font-size="13px" font-weight="normal" fill="rgb(68, 68, 68)" style="font-size:13px;font-family:微软雅黑;color:rgb(68,68,68);font-style:normal;text-align:left;font-weight:normal;"><tspan x="53.859375" y="549.7406249999999"><tspan>cyberdog.repos</tspan></tspan></text></g></g><g id="363966aa3ed7"><rect x="79.875" y="566" rx="1px" ry="1px" width="76" height="27" style="fill: transparent; stroke:none;"></rect><g><text text-anchor="start" align="top" anchor="start" font-size="13px" font-weight="normal" fill="rgb(68, 68, 68)" style="font-size:13px;font-family:微软雅黑;color:rgb(68,68,68);font-style:normal;text-align:left;font-weight:normal;"><tspan x="88.875" y="584.7406249999999"><tspan>thirdparty</tspan></tspan></text></g></g><g id="939e7294d318"><rect x="30" y="601" rx="1px" ry="1px" width="126" height="27" style="fill: transparent; stroke:none;"></rect><g><text text-anchor="start" align="top" anchor="start" font-size="13px" font-weight="normal" fill="rgb(68, 68, 68)" style="font-size:13px;font-family:微软雅黑;color:rgb(68,68,68);font-style:normal;text-align:left;font-weight:normal;"><tspan x="39" y="619.7406249999999"><tspan>cyberdog_bringup</tspan></tspan></text></g></g><g id="513f66177999"><rect x="108.109375" y="636" rx="1px" ry="1px" width="48" height="27" style="fill: transparent; stroke:none;"></rect><g><text text-anchor="start" align="top" anchor="start" font-size="13px" font-weight="normal" fill="rgb(68, 68, 68)" style="font-size:13px;font-family:微软雅黑;color:rgb(68,68,68);font-style:normal;text-align:left;font-weight:normal;"><tspan x="117.109375" y="654.7406249999999"><tspan>tools</tspan></tspan></text></g></g><g id="76bb576230db"><rect x="184.109375" y="572.640625" rx="5px" ry="5px" width="125" height="50" style="fill: #ffffff; stroke:rgb(187,187,187);stroke-width:1px;"></rect><g><text text-anchor="start" align="top" anchor="start" font-size="17px" font-weight="normal" fill="rgb(68, 68, 68)" style="font-size:17px;font-family:微软雅黑;color:rgb(68,68,68);font-style:normal;text-align:left;font-weight:normal;"><tspan x="195.109375" y="605.0406250000001"><tspan>cyberdog_ws</tspan></tspan></text></g></g><g id="98c6d643a94c"><rect x="161.375" y="373" rx="1px" ry="1px" width="48" height="27" style="fill: transparent; stroke:none;"></rect><g><text text-anchor="start" align="top" anchor="start" font-size="13px" font-weight="normal" fill="rgb(68, 68, 68)" style="font-size:13px;font-family:微软雅黑;color:rgb(68,68,68);font-style:normal;text-align:left;font-weight:normal;"><tspan x="170.375" y="391.740625"><tspan>grpc</tspan></tspan></text></g></g><g id="947620fe404e"><rect x="146.796875" y="408" rx="1px" ry="1px" width="63" height="27" style="fill: transparent; stroke:none;"></rect><g><text text-anchor="start" align="top" anchor="start" font-size="13px" font-weight="normal" fill="rgb(68, 68, 68)" style="font-size:13px;font-family:微软雅黑;color:rgb(68,68,68);font-style:normal;text-align:left;font-weight:normal;"><tspan x="155.796875" y="426.740625"><tspan>params</tspan></tspan></text></g></g><g id="d10e49857b6b"><rect x="141.375" y="443" rx="1px" ry="1px" width="68" height="27" style="fill: transparent; stroke:none;"></rect><g><text text-anchor="start" align="top" anchor="start" font-size="13px" font-weight="normal" fill="rgb(68, 68, 68)" style="font-size:13px;font-family:微软雅黑;color:rgb(68,68,68);font-style:normal;text-align:left;font-weight:normal;"><tspan x="150.375" y="461.740625"><tspan>protocol</tspan></tspan></text></g></g><g id="d0a49f4723e1"><rect x="83.03125" y="478" rx="1px" ry="1px" width="126" height="27" style="fill: transparent; stroke:none;"></rect><g><text text-anchor="start" align="top" anchor="start" font-size="13px" font-weight="normal" fill="rgb(68, 68, 68)" style="font-size:13px;font-family:微软雅黑;color:rgb(68,68,68);font-style:normal;text-align:left;font-weight:normal;"><tspan x="92.03125" y="496.740625"><tspan>common_protocol</tspan></tspan></text></g></g><g id="647b24c9f94c"><rect x="237.375" y="414.640625" rx="5px" ry="5px" width="72" height="50" style="fill: #ffffff; stroke:rgb(187,187,187);stroke-width:1px;"></rect><g><text text-anchor="start" align="top" anchor="start" font-size="17px" font-weight="normal" fill="rgb(68, 68, 68)" style="font-size:17px;font-family:微软雅黑;color:rgb(68,68,68);font-style:normal;text-align:left;font-weight:normal;"><tspan x="248.375" y="447.040625"><tspan>bridge</tspan></tspan></text></g></g><g id="fd52b9cb341f"><rect x="171.25" y="180" rx="1px" ry="1px" width="56" height="27" style="fill: transparent; stroke:none;"></rect><g><text text-anchor="start" align="top" anchor="start" font-size="13px" font-weight="normal" fill="rgb(68, 68, 68)" style="font-size:13px;font-family:微软雅黑;color:rgb(68,68,68);font-style:normal;text-align:left;font-weight:normal;"><tspan x="180.25" y="198.74062500000002"><tspan>config</tspan></tspan></text></g></g><g id="c97da8f060a9"><rect x="164.265625" y="215" rx="1px" ry="1px" width="63" height="27" style="fill: transparent; stroke:none;"></rect><g><text text-anchor="start" align="top" anchor="start" font-size="13px" font-weight="normal" fill="rgb(68, 68, 68)" style="font-size:13px;font-family:微软雅黑;color:rgb(68,68,68);font-style:normal;text-align:left;font-weight:normal;"><tspan x="173.265625" y="233.74062500000002"><tspan>params</tspan></tspan></text></g></g><g id="1cb1ee8982b0"><rect x="178.84375" y="250" rx="1px" ry="1px" width="48" height="27" style="fill: transparent; stroke:none;"></rect><g><text text-anchor="start" align="top" anchor="start" font-size="13px" font-weight="normal" fill="rgb(68, 68, 68)" style="font-size:13px;font-family:微软雅黑;color:rgb(68,68,68);font-style:normal;text-align:left;font-weight:normal;"><tspan x="187.84375" y="268.740625"><tspan>Log</tspan></tspan></text></g></g><g id="37bc21050842"><rect x="149.015625" y="285" rx="1px" ry="1px" width="78" height="27" style="fill: transparent; stroke:none;"></rect><g><text text-anchor="start" align="top" anchor="start" font-size="13px" font-weight="normal" fill="rgb(68, 68, 68)" style="font-size:13px;font-family:微软雅黑;color:rgb(68,68,68);font-style:normal;text-align:left;font-weight:normal;"><tspan x="158.015625" y="303.740625"><tspan>traceback</tspan></tspan></text></g></g><g id="255731228b6f"><rect x="146.78125" y="320" rx="1px" ry="1px" width="80" height="27" style="fill: transparent; stroke:none;"></rect><g><text text-anchor="start" align="top" anchor="start" font-size="13px" font-weight="normal" fill="rgb(68, 68, 68)" style="font-size:13px;font-family:微软雅黑;color:rgb(68,68,68);font-style:normal;text-align:left;font-weight:normal;"><tspan x="155.78125" y="338.740625"><tspan>ErrorCode</tspan></tspan></text></g></g><g id="f9610654217c"><rect x="254.84375" y="238.640625" rx="5px" ry="5px" width="55" height="50" style="fill: #ffffff; stroke:rgb(187,187,187);stroke-width:1px;"></rect><g><text text-anchor="start" align="top" anchor="start" font-size="17px" font-weight="normal" fill="rgb(68, 68, 68)" style="font-size:17px;font-family:微软雅黑;color:rgb(68,68,68);font-style:normal;text-align:left;font-weight:normal;"><tspan x="265.84375" y="271.040625"><tspan>utils</tspan></tspan></text></g></g><g id="a496dafa0e9b"><rect x="74.5" y="92" rx="1px" ry="1px" width="116" height="27" style="fill: transparent; stroke:none;"></rect><g><text text-anchor="start" align="top" anchor="start" font-size="13px" font-weight="normal" fill="rgb(68, 68, 68)" style="font-size:13px;font-family:微软雅黑;color:rgb(68,68,68);font-style:normal;text-align:left;font-weight:normal;"><tspan x="83.5" y="110.740625"><tspan>cyberdog_check</tspan></tspan></text></g></g><g id="ebc3f3541a30"><rect x="112.328125" y="127" rx="1px" ry="1px" width="78" height="27" style="fill: transparent; stroke:none;"></rect><g><text text-anchor="start" align="top" anchor="start" font-size="13px" font-weight="normal" fill="rgb(68, 68, 68)" style="font-size:13px;font-family:微软雅黑;color:rgb(68,68,68);font-style:normal;text-align:left;font-weight:normal;"><tspan x="121.328125" y="145.740625"><tspan>black_box</tspan></tspan></text></g></g><g id="406ad1c88715"><rect x="218.609375" y="98.640625" rx="5px" ry="5px" width="91" height="50" style="fill: #ffffff; stroke:rgb(187,187,187);stroke-width:1px;"></rect><g><text text-anchor="start" align="top" anchor="start" font-size="17px" font-weight="normal" fill="rgb(68, 68, 68)" style="font-size:17px;font-family:微软雅黑;color:rgb(68,68,68);font-style:normal;text-align:left;font-weight:normal;"><tspan x="229.609375" y="131.040625"><tspan>manager</tspan></tspan></text></g></g><g transform="translate(605.34375, 627)" id="sdjakdjak0"><g id="subline_5b558bcd799f" transform="translate(0.5,0.5)"><path id="line_825ba1476f7d" d="M 96.09375 48.5 L 115 48.5 L 115 17.5 A 4 4 0 0 1 119 13.5 L 124.09375 13.5" p="5b558bcd799f" stroke="rgb(140,140,140)" fill="none" stroke-linecap="square" stroke-width="1"></path><path id="line_15eaabc9d2b1" d="M 96.09375 48.5 L 115 48.5 L 115 48.5 L 124.09375 48.5" p="5b558bcd799f" stroke="rgb(140,140,140)" fill="none" stroke-linecap="square" stroke-width="1"></path><path id="line_31417e1dfdf2" d="M 96.09375 48.5 L 115 48.5 L 115 79.5 A 4 4 0 0 0 119 83.5 L 124.09375 83.5" p="5b558bcd799f" stroke="rgb(140,140,140)" fill="none" stroke-linecap="square" stroke-width="1"></path></g><g transform="translate(0.5,0.5)"></g><g class="svg-summary-con" transform="translate(0.5,0.5)"></g><g class="svg-boundary-con" transform="translate(0.5,0.5)"></g></g><g transform="translate(605.34375, 469)" id="sdjakdjak1"><g id="subline_8ef33ef1864c" transform="translate(0.5,0.5)"><path id="line_a732aed53006" d="M 106.1875 66 L 125 66 L 125 17.5 A 4 4 0 0 1 129 13.5 L 134.1875 13.5" p="8ef33ef1864c" stroke="rgb(140,140,140)" fill="none" stroke-linecap="square" stroke-width="1"></path><path id="line_d33772bdc472" d="M 106.1875 66 L 125 66 L 125 52.5 A 4 4 0 0 1 129 48.5 L 134.1875 48.5" p="8ef33ef1864c" stroke="rgb(140,140,140)" fill="none" stroke-linecap="square" stroke-width="1"></path><path id="line_97d57b8183b7" d="M 106.1875 66 L 125 66 L 125 79.5 A 4 4 0 0 0 129 83.5 L 134.1875 83.5" p="8ef33ef1864c" stroke="rgb(140,140,140)" fill="none" stroke-linecap="square" stroke-width="1"></path><path id="line_731f8801fd87" d="M 106.1875 66 L 125 66 L 125 114.5 A 4 4 0 0 0 129 118.5 L 134.1875 118.5" p="8ef33ef1864c" stroke="rgb(140,140,140)" fill="none" stroke-linecap="square" stroke-width="1"></path></g><g transform="translate(0.5,0.5)"></g><g class="svg-summary-con" transform="translate(0.5,0.5)"></g><g class="svg-boundary-con" transform="translate(0.5,0.5)"></g></g><g transform="translate(605.34375, 311)" id="sdjakdjak2"><g id="subline_bfcaa19b1abf" transform="translate(0.5,0.5)"><path id="line_a4dd184607d9" d="M 74.28125 66 L 93 66 L 93 17.5 A 4 4 0 0 1 97 13.5 L 102.28125 13.5" p="bfcaa19b1abf" stroke="rgb(140,140,140)" fill="none" stroke-linecap="square" stroke-width="1"></path><path id="line_e8e95a9e2b77" d="M 74.28125 66 L 93 66 L 93 52.5 A 4 4 0 0 1 97 48.5 L 102.28125 48.5" p="bfcaa19b1abf" stroke="rgb(140,140,140)" fill="none" stroke-linecap="square" stroke-width="1"></path><path id="line_b98e5f8dcf49" d="M 74.28125 66 L 93 66 L 93 79.5 A 4 4 0 0 0 97 83.5 L 102.28125 83.5" p="bfcaa19b1abf" stroke="rgb(140,140,140)" fill="none" stroke-linecap="square" stroke-width="1"></path><path id="line_0ef64af28170" d="M 74.28125 66 L 93 66 L 93 114.5 A 4 4 0 0 0 97 118.5 L 102.28125 118.5" p="bfcaa19b1abf" stroke="rgb(140,140,140)" fill="none" stroke-linecap="square" stroke-width="1"></path></g><g transform="translate(0.5,0.5)"></g><g class="svg-summary-con" transform="translate(0.5,0.5)"></g><g class="svg-boundary-con" transform="translate(0.5,0.5)"></g></g><g transform="translate(605.34375, 188)" id="sdjakdjak3"><g id="subline_9aeb39cc6909" transform="translate(0.5,0.5)"><path id="line_3465036dc5ff" d="M 76.359375 48.5 L 95 48.5 L 95 17.5 A 4 4 0 0 1 99 13.5 L 104.359375 13.5" p="9aeb39cc6909" stroke="rgb(140,140,140)" fill="none" stroke-linecap="square" stroke-width="1"></path><path id="line_92dbd7984e97" d="M 76.359375 48.5 L 95 48.5 L 95 48.5 L 104.359375 48.5" p="9aeb39cc6909" stroke="rgb(140,140,140)" fill="none" stroke-linecap="square" stroke-width="1"></path><path id="line_3a036dfa5dfe" d="M 76.359375 48.5 L 95 48.5 L 95 79.5 A 4 4 0 0 0 99 83.5 L 104.359375 83.5" p="9aeb39cc6909" stroke="rgb(140,140,140)" fill="none" stroke-linecap="square" stroke-width="1"></path></g><g transform="translate(0.5,0.5)"></g><g class="svg-summary-con" transform="translate(0.5,0.5)"></g><g class="svg-boundary-con" transform="translate(0.5,0.5)"></g></g><g transform="translate(605.34375, 30)" id="sdjakdjak4"><g id="subline_5978d571cddb" transform="translate(0.5,0.5)"><path id="line_a42e6982c969" d="M 72.6875 66 L 91 66 L 91 17.5 A 4 4 0 0 1 95 13.5 L 100.6875 13.5" p="5978d571cddb" stroke="rgb(140,140,140)" fill="none" stroke-linecap="square" stroke-width="1"></path><path id="line_b6f6a3d87b95" d="M 72.6875 66 L 91 66 L 91 52.5 A 4 4 0 0 1 95 48.5 L 100.6875 48.5" p="5978d571cddb" stroke="rgb(140,140,140)" fill="none" stroke-linecap="square" stroke-width="1"></path><path id="line_256714349904" d="M 72.6875 66 L 91 66 L 91 79.5 A 4 4 0 0 0 95 83.5 L 100.6875 83.5" p="5978d571cddb" stroke="rgb(140,140,140)" fill="none" stroke-linecap="square" stroke-width="1"></path><path id="line_117855771220" d="M 72.6875 66 L 91 66 L 91 114.5 A 4 4 0 0 0 95 118.5 L 100.6875 118.5" p="5978d571cddb" stroke="rgb(140,140,140)" fill="none" stroke-linecap="square" stroke-width="1"></path></g><g transform="translate(0.5,0.5)"></g><g class="svg-summary-con" transform="translate(0.5,0.5)"></g><g class="svg-boundary-con" transform="translate(0.5,0.5)"></g></g><g transform="translate(30, 531)" id="sdjakdjak5"><g id="subline_76bb576230db" transform="translate(0.5,0.5)"><path id="line_1943c5a9ac97" d="M 154.109375 66 L 137 66 L 137 17.5 A 4 4 0 0 0 133 13.5 L 126.109375 13.5" p="76bb576230db" stroke="rgb(140,140,140)" fill="none" stroke-linecap="square" stroke-width="1"></path><path id="line_363966aa3ed7" d="M 154.109375 66 L 137 66 L 137 52.5 A 4 4 0 0 0 133 48.5 L 126.109375 48.5" p="76bb576230db" stroke="rgb(140,140,140)" fill="none" stroke-linecap="square" stroke-width="1"></path><path id="line_939e7294d318" d="M 154.109375 66 L 137 66 L 137 79.5 A 4 4 0 0 1 133 83.5 L 126.109375 83.5" p="76bb576230db" stroke="rgb(140,140,140)" fill="none" stroke-linecap="square" stroke-width="1"></path><path id="line_513f66177999" d="M 154.109375 66 L 137 66 L 137 114.5 A 4 4 0 0 1 133 118.5 L 126.109375 118.5" p="76bb576230db" stroke="rgb(140,140,140)" fill="none" stroke-linecap="square" stroke-width="1"></path></g><g transform="translate(0.5,0.5)"></g><g class="svg-summary-con" transform="translate(0.5,0.5)"></g><g class="svg-boundary-con" transform="translate(0.5,0.5)"></g></g><g transform="translate(83.03125, 373)" id="sdjakdjak6"><g id="subline_647b24c9f94c" transform="translate(0.5,0.5)"><path id="line_98c6d643a94c" d="M 154.34375 66 L 137 66 L 137 17.5 A 4 4 0 0 0 133 13.5 L 126.34375 13.5" p="647b24c9f94c" stroke="rgb(140,140,140)" fill="none" stroke-linecap="square" stroke-width="1"></path><path id="line_947620fe404e" d="M 154.34375 66 L 137 66 L 137 52.5 A 4 4 0 0 0 133 48.5 L 126.34375 48.5" p="647b24c9f94c" stroke="rgb(140,140,140)" fill="none" stroke-linecap="square" stroke-width="1"></path><path id="line_d10e49857b6b" d="M 154.34375 66 L 137 66 L 137 79.5 A 4 4 0 0 1 133 83.5 L 126.34375 83.5" p="647b24c9f94c" stroke="rgb(140,140,140)" fill="none" stroke-linecap="square" stroke-width="1"></path><path id="line_d0a49f4723e1" d="M 154.34375 66 L 137 66 L 137 114.5 A 4 4 0 0 1 133 118.5 L 126.34375 118.5" p="647b24c9f94c" stroke="rgb(140,140,140)" fill="none" stroke-linecap="square" stroke-width="1"></path></g><g transform="translate(0.5,0.5)"></g><g class="svg-summary-con" transform="translate(0.5,0.5)"></g><g class="svg-boundary-con" transform="translate(0.5,0.5)"></g></g><g transform="translate(146.78125, 180)" id="sdjakdjak7"><g id="subline_f9610654217c" transform="translate(0.5,0.5)"><path id="line_fd52b9cb341f" d="M 108.0625 83.5 L 91 83.5 L 91 17.5 A 4 4 0 0 0 87 13.5 L 80.0625 13.5" p="f9610654217c" stroke="rgb(140,140,140)" fill="none" stroke-linecap="square" stroke-width="1"></path><path id="line_c97da8f060a9" d="M 108.0625 83.5 L 91 83.5 L 91 52.5 A 4 4 0 0 0 87 48.5 L 80.0625 48.5" p="f9610654217c" stroke="rgb(140,140,140)" fill="none" stroke-linecap="square" stroke-width="1"></path><path id="line_1cb1ee8982b0" d="M 108.0625 83.5 L 91 83.5 L 91 83.5 L 80.0625 83.5" p="f9610654217c" stroke="rgb(140,140,140)" fill="none" stroke-linecap="square" stroke-width="1"></path><path id="line_37bc21050842" d="M 108.0625 83.5 L 91 83.5 L 91 114.5 A 4 4 0 0 1 87 118.5 L 80.0625 118.5" p="f9610654217c" stroke="rgb(140,140,140)" fill="none" stroke-linecap="square" stroke-width="1"></path><path id="line_255731228b6f" d="M 108.0625 83.5 L 91 83.5 L 91 149.5 A 4 4 0 0 1 87 153.5 L 80.0625 153.5" p="f9610654217c" stroke="rgb(140,140,140)" fill="none" stroke-linecap="square" stroke-width="1"></path></g><g transform="translate(0.5,0.5)"></g><g class="svg-summary-con" transform="translate(0.5,0.5)"></g><g class="svg-boundary-con" transform="translate(0.5,0.5)"></g></g><g transform="translate(74.5, 92)" id="sdjakdjak8"><g id="subline_406ad1c88715" transform="translate(0.5,0.5)"><path id="line_a496dafa0e9b" d="M 144.109375 31 L 127 31 L 127 17.5 A 4 4 0 0 0 123 13.5 L 116.109375 13.5" p="406ad1c88715" stroke="rgb(140,140,140)" fill="none" stroke-linecap="square" stroke-width="1"></path><path id="line_ebc3f3541a30" d="M 144.109375 31 L 127 31 L 127 44.5 A 4 4 0 0 1 123 48.5 L 116.109375 48.5" p="406ad1c88715" stroke="rgb(140,140,140)" fill="none" stroke-linecap="square" stroke-width="1"></path></g><g transform="translate(0.5,0.5)"></g><g class="svg-summary-con" transform="translate(0.5,0.5)"></g><g class="svg-boundary-con" transform="translate(0.5,0.5)"></g></g><g transform="translate(389.34375, 343)" id="sdjakdjak9"><g id="subline_root" transform="translate(0.5,0.5)"></g><g transform="translate(0.5,0.5)"></g><g class="svg-summary-con" transform="translate(0.5,0.5)"></g><g class="svg-boundary-con" transform="translate(0.5,0.5)"></g></g><g id="root"><rect x="389.34375" y="343" rx="5px" ry="5px" width="136" height="69" style="fill: #50C28B; stroke:none;"></rect><g><text text-anchor="start" align="top" anchor="start" font-size="25px" font-weight="normal" fill="rgb(255, 255, 255)" style="font-size:25px;font-family:微软雅黑;color:#fff;font-style:normal;text-align:left;font-weight:normal;"><tspan x="401.34375" y="388.046875"><tspan>Cyberdog</tspan></tspan></text></g></g></svg>